<svg xmlns="http://www.w3.org/2000/svg" width="96" height="96" viewBox="0 0 96 96" fill="none">
  <defs>
    <linearGradient id="g" x1="14" y1="10" x2="86" y2="90" gradientUnits="userSpaceOnUse">
      <stop stop-color="#22D3EE" stop-opacity="0.95"/>
      <stop offset="0.55" stop-color="#6366F1" stop-opacity="0.85"/>
      <stop offset="1" stop-color="#38BDF8" stop-opacity="0.9"/>
    </linearGradient>
    <radialGradient id="r" cx="0" cy="0" r="1" gradientUnits="userSpaceOnUse" gradientTransform="translate(22 18) rotate(55) scale(86 76)">
      <stop stop-color="#FFFFFF" stop-opacity="0.20"/>
      <stop offset="1" stop-color="#FFFFFF" stop-opacity="0"/>
    </radialGradient>
    <filter id="shadow" x="-30%" y="-30%" width="160%" height="160%" color-interpolation-filters="sRGB">
      <feDropShadow dx="0" dy="10" stdDeviation="10" flood-color="#22D3EE" flood-opacity="0.18"/>
    </filter>
  </defs>
  <rect x="10" y="10" width="76" height="76" rx="22" fill="#07112E"/>
  <rect x="12" y="12" width="72" height="72" rx="20" fill="url(#g)" filter="url(#shadow)"/>
  <rect x="12" y="12" width="72" height="72" rx="20" fill="url(#r)"/>
  <path d="M33 30h30c1.7 0 3 1.3 3 3v6c0 1.7-1.3 3-3 3H43v6h18c1.7 0 3 1.3 3 3v6c0 1.7-1.3 3-3 3H33c-1.7 0-3-1.3-3-3V33c0-1.7 1.3-3 3-3Z" fill="#06102A" opacity="0.92"/>
  <path d="M33 30h30c1.7 0 3 1.3 3 3v6c0 1.7-1.3 3-3 3H43v6h18c1.7 0 3 1.3 3 3v6c0 1.7-1.3 3-3 3H33c-1.7 0-3-1.3-3-3V33c0-1.7 1.3-3 3-3Z" fill="#FFFFFF" opacity="0.06"/>
</svg>

